HIERARCHY
ROOT Pelvis
{
	OFFSET 0.000000 0.000000 0.000000
	CHANNELS 6 Xposition Yposition Zposition Xrotation Yrotation Zrotation
	JOINT LeftUpLeg_virtual
	{
		OFFSET 0.000000 0.000000 0.000000
		CHANNELS 3 Xrotation Yrotation Zrotation
		JOINT LeftUpLeg
		{
			OFFSET 8.479700 -4.795502 -0.379100
			CHANNELS 3 Xrotation Yrotation Zrotation
			JOINT LeftLeg
			{
				OFFSET 0.024144 -32.555107 0.112900
				CHANNELS 3 Xrotation Yrotation Zrotation
				JOINT LeftFoot
				{
					OFFSET -0.024144 -32.638630 -3.012600
					CHANNELS 3 Xrotation Yrotation Zrotation
					JOINT LeftToeBase
					{
						OFFSET 0.970200 -13.225400 11.864200
						CHANNELS 3 Xrotation Yrotation Zrotation
						End Site
						{
							OFFSET 0 0 0
						}
					}
				}
			}
		}
	}
	JOINT RightUpLeg_virtual
	{
		OFFSET 0.000000 0.000000 0.000000
		CHANNELS 3 Xrotation Yrotation Zrotation
		JOINT RightUpLeg
		{
			OFFSET -8.479700 -4.795502 -0.379100
			CHANNELS 3 Xrotation Yrotation Zrotation
			JOINT RightLeg
			{
				OFFSET -0.023144 -32.555092 0.112900
				CHANNELS 3 Xrotation Yrotation Zrotation
				JOINT RightFoot
				{
					OFFSET 0.023144 -32.638641 -3.012700
					CHANNELS 3 Xrotation Yrotation Zrotation
					JOINT RightToeBase
					{
						OFFSET -0.970200 -13.225400 11.864200
						CHANNELS 3 Xrotation Yrotation Zrotation
						End Site
						{
							OFFSET 0 0 0
						}
					}
				}
			}
		}
	}
	JOINT Hips_virtual
	{
		OFFSET 0.000000 0.000000 0.000000
		CHANNELS 3 Xrotation Yrotation Zrotation
		JOINT Hips
		{
			OFFSET -0.000000 -0.000000 -0.000000
			CHANNELS 3 Xrotation Yrotation Zrotation
			JOINT Spine
			{
				OFFSET 0.000000 7.722000 1.166200
				CHANNELS 3 Xrotation Yrotation Zrotation
				JOINT Spine1
				{
					OFFSET 0.000000 12.024101 0.248800
					CHANNELS 3 Xrotation Yrotation Zrotation
					JOINT Spine2
					{
						OFFSET 0.000000 11.502998 -0.491200
						CHANNELS 3 Xrotation Yrotation Zrotation
						JOINT Neck_virtual
						{
							OFFSET 0.000000 0.000000 0.000000
							CHANNELS 3 Xrotation Yrotation Zrotation
							JOINT Neck
							{
								OFFSET 0.000000 18.430702 -3.123100
								CHANNELS 3 Xrotation Yrotation Zrotation
								JOINT Head
								{
									OFFSET 0.000000 9.051102 1.034000
									CHANNELS 3 Xrotation Yrotation Zrotation
									End Site
									{
										OFFSET 0 0 0
									}
								}
							}
						}
						JOINT LeftShoulder_virtual
						{
							OFFSET 0.000000 0.000000 0.000000
							CHANNELS 3 Xrotation Yrotation Zrotation
							JOINT LeftShoulder
							{
								OFFSET 6.197800 13.665199 -4.064700
								CHANNELS 3 Xrotation Yrotation Zrotation
								JOINT LeftArm
								{
									OFFSET 7.778100 -0.187103 -1.709300
									CHANNELS 3 Xrotation Yrotation Zrotation
									JOINT LeftForeArm
									{
										OFFSET 22.049376 0.000000 0.000000
										CHANNELS 3 Xrotation Yrotation Zrotation
										JOINT LeftHand
										{
											OFFSET 23.009392 0.000000 0.000000
											CHANNELS 3 Xrotation Yrotation Zrotation
											End Site
											{
												OFFSET 0 0 0
											}
										}
									}
								}
							}
						}
						JOINT RightShoulder_virtual
						{
							OFFSET 0.000000 0.000000 0.000000
							CHANNELS 3 Xrotation Yrotation Zrotation
							JOINT RightShoulder
							{
								OFFSET -6.197800 13.665199 -4.064700
								CHANNELS 3 Xrotation Yrotation Zrotation
								JOINT RightArm
								{
									OFFSET -7.778100 -0.187103 -1.709300
									CHANNELS 3 Xrotation Yrotation Zrotation
									JOINT RightForeArm
									{
										OFFSET -22.049376 0.000000 0.000000
										CHANNELS 3 Xrotation Yrotation Zrotation
										JOINT RightHand
										{
											OFFSET -23.009392 0.000000 0.000000
											CHANNELS 3 Xrotation Yrotation Zrotation
											End Site
											{
												OFFSET 0 0 0
											}
										}
									}
								}
							}
						}
					}
				}
			}
		}
	}
}
MOTION
Frames: 10
Frame Time: 0.03333333
0.002267 82.015495 0.435184 0.000000 0.000000 0.000000 -0.316909 -0.858913 0.802995 -7.522954 13.541805 8.040956 11.227997 -9.927577 0.314443 -4.478595 0.253737 -6.790392 0.000000 0.000000 0.000000 -0.316909 -0.858913 0.802995 -6.219262 -10.024402 -12.480127 9.137507 6.276790 2.455824 -3.786998 -0.466620 7.660929 0.000000 0.000000 0.000000 -0.316909 -0.858913 0.802995 0.000000 0.000000 0.000000 0.602023 0.538669 0.198204 0.948881 0.543752 -0.036077 0.000000 0.000000 0.000000 0.949056 0.535715 -0.036774 1.759488 -1.272665 -0.666066 0.000000 0.000000 0.000000 0.949056 0.535715 -0.036774 0.691656 -2.499305 -11.191563 5.273952 -17.247121 -62.895271 -0.000005 -21.850205 0.000005 0.000000 0.000000 0.000000 0.949056 0.535715 -0.036774 0.450398 7.851257 13.847200 5.786517 9.805980 61.054965 0.000004 23.253212 -0.000002 0.000000 0.000000 0.000000 
0.001590 82.015778 0.462397 0.000000 0.000000 0.000000 -0.316911 -0.878427 0.802785 -7.488920 13.551083 8.040925 11.208007 -9.928013 0.314404 -4.491000 0.271745 -6.793104 0.000000 0.000000 0.000000 -0.316911 -0.878427 0.802785 -6.188546 -10.017910 -12.479667 9.108264 6.276700 2.449477 -3.788738 -0.466739 7.673506 0.000000 0.000000 0.000000 -0.316911 -0.878427 0.802785 0.000000 0.000000 0.000000 0.602021 0.538643 0.187498 0.948881 0.543752 -0.041389 0.000000 0.000000 0.000000 0.949055 0.535716 -0.036774 1.770464 -1.244366 -0.642449 0.000000 0.000000 0.000000 0.949055 0.535716 -0.036774 0.691600 -2.499366 -11.192654 5.373539 -17.224134 -62.870143 0.000003 -21.977800 0.000003 0.000000 0.000000 0.000000 0.949055 0.535716 -0.036774 0.452104 7.851159 13.834698 5.909145 9.840623 61.120207 0.000002 23.315447 0.000002 0.000000 0.000000 0.000000 
0.000028 82.015015 0.491724 0.000000 0.000000 0.000000 -0.316912 -0.895702 0.802888 -7.455790 13.559711 8.040961 11.198916 -9.928237 0.314388 -4.513865 0.285369 -6.793538 0.000000 0.000000 0.000000 -0.316912 -0.895702 0.802888 -6.165360 -10.011846 -12.475771 9.105039 6.272325 2.443673 -3.807626 -0.466680 7.678622 0.000000 0.000000 0.000000 -0.316912 -0.895702 0.802888 0.000000 0.000000 0.000000 0.602020 0.542368 0.176806 0.948881 0.543752 -0.047614 0.000000 0.000000 0.000000 0.949056 0.535716 -0.042374 1.780577 -1.212660 -0.622516 0.000000 0.000000 0.000000 0.949056 0.535716 -0.042374 0.692010 -2.516157 -11.214495 5.525722 -17.246023 -62.798863 0.000000 -22.198154 0.000005 0.000000 0.000000 0.000000 0.949056 0.535716 -0.042374 0.449468 7.849635 13.857038 6.043051 9.889812 61.153764 -0.000001 23.361525 -0.000005 0.000000 0.000000 0.000000 
-0.001731 82.011436 0.521646 0.000000 0.000000 0.000000 -0.316913 -0.907153 0.799425 -7.439217 13.563767 8.047956 11.222289 -9.928464 0.314360 -4.554037 0.291186 -6.785232 0.000000 0.000000 0.000000 -0.316913 -0.907153 0.799425 -6.153441 -9.993622 -12.464930 9.137569 6.253731 2.429674 -3.845908 -0.473037 7.686151 0.000000 0.000000 0.000000 -0.316913 -0.907153 0.799425 0.000000 0.000000 0.000000 0.603239 0.547661 0.168885 0.952789 0.543752 -0.056660 0.000000 0.000000 0.000000 0.952979 0.540084 -0.051263 1.792711 -1.175588 -0.617547 0.000000 0.000000 0.000000 0.952979 0.540084 -0.051263 0.691128 -2.553943 -11.273605 5.631554 -17.345954 -62.656918 -0.000009 -22.462026 -0.000020 0.000000 0.000000 0.000000 0.952979 0.540084 -0.051263 0.446510 7.844589 13.940676 6.222919 9.968883 61.098829 -0.000014 23.471773 0.000051 0.000000 0.000000 0.000000 
-0.002417 82.001335 0.547497 0.000000 0.000000 0.000000 -0.311788 -0.910073 0.786796 -7.482043 13.550927 8.070330 11.339225 -9.928640 0.321567 -4.635134 0.298281 -6.766053 0.000000 0.000000 0.000000 -0.311788 -0.910073 0.786796 -6.178596 -9.945995 -12.440859 9.244279 6.214072 2.399445 -3.918503 -0.482739 7.700093 0.000000 0.000000 0.000000 -0.311788 -0.910073 0.786796 0.000000 0.000000 0.000000 0.611183 0.556217 0.168387 0.963187 0.543752 -0.069053 0.000000 0.000000 0.000000 0.963427 0.544780 -0.063332 1.815911 -1.132038 -0.633814 0.000000 0.000000 0.000000 0.963427 0.544780 -0.063332 0.687645 -2.578771 -11.358226 5.493323 -17.548535 -62.451186 0.000002 -22.647002 0.000008 0.000000 0.000000 0.000000 0.963427 0.544780 -0.063332 0.440788 7.832453 14.103889 6.457135 10.074927 60.890460 0.000008 23.759040 -0.000017 0.000000 0.000000 0.000000 
-0.001291 81.981270 0.558765 0.000000 0.000000 0.000000 -0.280199 -0.901950 0.759777 -7.644384 13.496908 8.114014 11.608294 -9.928511 0.346068 -4.775339 0.322811 -6.744048 0.000000 0.000000 0.000000 -0.280199 -0.901950 0.759777 -6.289377 -9.865245 -12.403273 9.461730 6.159925 2.356989 -4.035280 -0.492122 7.715747 0.000000 0.000000 0.000000 -0.280199 -0.901950 0.759777 0.000000 0.000000 0.000000 0.623530 0.569016 0.179382 0.977188 0.547997 -0.082176 0.000000 0.000000 0.000000 0.977506 0.549153 -0.075892 1.859603 -1.084018 -0.666700 0.000000 0.000000 0.000000 0.977506 0.549153 -0.075892 0.680729 -2.547518 -11.411948 4.909340 -17.855014 -62.220838 0.000006 -22.650909 0.000021 0.000000 0.000000 0.000000 0.977506 0.549153 -0.075892 0.433136 7.815236 14.329532 6.676395 10.183187 60.500074 -0.000004 24.311970 0.000006 0.000000 0.000000 0.000000 
0.001031 81.953026 0.536547 0.000000 0.000000 0.000000 -0.179764 -0.879352 0.713986 -7.985757 13.363270 8.170581 12.034851 -9.927614 0.408674 -4.957917 0.398916 -6.746737 0.000000 0.000000 0.000000 -0.179764 -0.879352 0.713986 -6.538278 -9.776080 -12.354827 9.763301 6.110828 2.322191 -4.164183 -0.497534 7.719007 0.000000 0.000000 0.000000 -0.179764 -0.879352 0.713986 0.000000 0.000000 0.000000 0.632383 0.588244 0.203767 0.987531 0.553731 -0.090297 0.000000 0.000000 0.000000 0.987944 0.554976 -0.083196 1.919357 -1.037445 -0.702096 0.000000 0.000000 0.000000 0.987944 0.554976 -0.083196 0.671088 -2.450089 -11.354333 3.831873 -18.217936 -61.992573 -0.000001 -22.598396 0.000008 0.000000 0.000000 0.000000 0.987944 0.554976 -0.083196 0.426408 7.793744 14.551523 6.731392 10.282453 59.960612 0.000002 25.166860 -0.000002 0.000000 0.000000 0.000000 
0.003310 81.926720 0.453699 0.000000 0.000000 0.000000 0.046457 -0.839033 0.642920 -8.539079 13.102938 8.216900 12.531066 -9.925744 0.535184 -5.112508 0.567422 -6.815421 0.000000 0.000000 0.000000 0.046457 -0.839033 0.642920 -6.951915 -9.718776 -12.285466 10.022231 6.072404 2.314277 -4.212031 -0.490825 7.698671 0.000000 0.000000 0.000000 0.046457 -0.839033 0.642920 0.000000 0.000000 0.000000 0.628972 0.619247 0.246280 0.987646 0.569159 -0.086782 0.000000 0.000000 0.000000 0.988144 0.570352 -0.078721 1.965035 -0.980722 -0.696592 0.000000 0.000000 0.000000 0.988144 0.570352 -0.078721 0.661727 -2.328176 -11.140427 2.429772 -18.524853 -61.721646 0.000004 -22.985489 0.000019 0.000000 0.000000 0.000000 0.988144 0.570352 -0.078721 0.424455 7.763332 14.682905 6.474134 10.425590 59.320637 -0.000001 26.372562 -0.000005 0.000000 0.000000 0.000000 
0.010464 81.906418 0.278862 0.000000 0.000000 0.000000 0.449785 -0.780711 0.502818 -9.417429 12.651691 8.301928 13.146046 -9.733061 0.731883 -5.233070 0.672063 -7.010155 0.000000 0.000000 0.000000 0.449785 -0.780711 0.502818 -7.549995 -9.707802 -12.133502 10.125918 6.022048 2.321290 -4.087513 -0.466114 7.663207 0.000000 0.000000 0.000000 0.449785 -0.780711 0.502818 0.000000 0.000000 0.000000 0.612950 0.668460 0.362324 0.980516 0.607874 -0.063871 0.000000 0.000000 0.000000 0.981024 0.608908 -0.054973 1.943204 -0.973704 -0.731148 0.000000 0.000000 0.000000 0.981024 0.608908 -0.054973 0.657628 -2.243741 -10.815325 0.915713 -18.654930 -61.320837 0.000010 -24.449874 0.000016 0.000000 0.000000 0.000000 0.981024 0.608908 -0.054973 0.429738 7.719691 14.670220 5.866566 10.717026 58.540759 0.000003 28.123446 -0.000012 0.000000 0.000000 0.000000 
0.031160 81.854080 -0.017656 0.000000 0.000000 0.000000 1.057429 -0.712918 0.240031 -10.908634 11.944806 8.527546 14.323773 -9.325104 0.973530 -5.511911 0.696889 -7.267202 0.000000 0.000000 0.000000 1.057429 -0.712918 0.240031 -8.557690 -9.670678 -11.855024 10.446089 5.950310 2.290136 -3.945752 -0.437942 7.628561 0.000000 0.000000 0.000000 1.057429 -0.712918 0.240031 0.000000 0.000000 0.000000 0.594471 0.741318 0.629927 0.980718 0.682412 -0.019501 0.000000 0.000000 0.000000 0.981052 0.683404 -0.010373 1.798125 -0.956948 -0.728066 0.000000 0.000000 0.000000 0.981052 0.683404 -0.010373 0.665345 -2.220587 -10.496103 -0.686605 -18.557615 -60.756384 -0.000004 -27.384392 -0.000029 0.000000 0.000000 0.000000 0.981052 0.683404 -0.010373 0.442956 7.666338 14.515001 4.976901 11.221997 57.479846 0.000001 30.774384 0.000006 0.000000 0.000000 0.000000 
